<svg width="1280" height="720" xmlns="http://www.w3.org/2000/svg" xmlns:xlink="http://www.w3.org/1999/xlink" overflow="hidden"><defs><filter id="fx0" x="-10%" y="-10%" width="120%" height="120%" filterUnits="userSpaceOnUse" primitiveUnits="userSpaceOnUse"><feComponentTransfer color-interpolation-filters="sRGB"><feFuncR type="discrete" tableValues="0 0"/><feFuncG type="discrete" tableValues="0 0"/><feFuncB type="discrete" tableValues="0 0"/><feFuncA type="linear" slope="0.4" intercept="0"/></feComponentTransfer><feGaussianBlur stdDeviation="4.44444 4.45272"/></filter><clipPath id="clip1"><rect x="0" y="0" width="1280" height="720"/></clipPath><clipPath id="clip2"><rect x="-2.5" y="-2.50465" width="557" height="275.011"/></clipPath><clipPath id="clip3"><rect x="0" y="0" width="552" height="269"/></clipPath></defs><g clip-path="url(#clip1)"><rect x="0" y="0" width="1280" height="720" fill="#0A1628"/><path d="M-57.5001 96.5C-57.5001 11.4481 11.4481-57.5001 96.5-57.5001 181.552-57.5001 250.5 11.4481 250.5 96.5 250.5 181.552 181.552 250.5 96.5 250.5 11.4481 250.5-57.5001 181.552-57.5001 96.5Z" stroke="#0D9488" stroke-width="1.33333" stroke-linejoin="round" stroke-miterlimit="10" fill="#0D9488" fill-rule="evenodd" fill-opacity="0.121569"/><path d="M1075.5 667.5C1075.5 574.716 1150.72 499.5 1243.5 499.5 1336.28 499.5 1411.5 574.716 1411.5 667.5 1411.5 760.284 1336.28 835.5 1243.5 835.5 1150.72 835.5 1075.5 760.284 1075.5 667.5Z" stroke="#C9A84C" stroke-width="1.33333" stroke-linejoin="round" stroke-miterlimit="10" fill="#C9A84C" fill-rule="evenodd" fill-opacity="0.121569"/><path d="M1008.5 9.99999C1008.5-48.2661 1055.73-95.5001 1114-95.5001 1172.27-95.5001 1219.5-48.2661 1219.5 9.99999 1219.5 68.2661 1172.27 115.5 1114 115.5 1055.73 115.5 1008.5 68.2661 1008.5 9.99999Z" stroke="#3B82F6" stroke-width="1.33333" stroke-linejoin="round" stroke-miterlimit="10" fill="#3B82F6" fill-rule="evenodd" fill-opacity="0.14902"/><path d="M48.5001 615C48.5001 567.227 87.2274 528.5 135 528.5 182.773 528.5 221.5 567.227 221.5 615 221.5 662.773 182.773 701.5 135 701.5 87.2274 701.5 48.5001 662.773 48.5001 615Z" stroke="#A855F7" stroke-width="1.33333" stroke-linejoin="round" stroke-miterlimit="10" fill="#A855F7" fill-rule="evenodd" fill-opacity="0.121569"/><g clip-path="url(#clip2)" filter="url(#fx0)" transform="matrix(2 0 0 1.99628 83 101)"><g clip-path="url(#clip3)"><rect x="14.3644" y="14.162" width="523.5" height="240.447" stroke="#1E3A6E" stroke-linejoin="round" stroke-miterlimit="10" fill="#112040" fill-opacity="0.8"/></g></g><rect x="115.5" y="125.5" width="1047" height="480" stroke="#1E3A6E" stroke-width="0.666667" stroke-linejoin="round" stroke-miterlimit="10" fill="#112040" fill-opacity="0.8"/><rect x="115.5" y="125.5" width="6" height="480" stroke="#C9A84C" stroke-width="1.33333" stroke-linejoin="round" stroke-miterlimit="10" fill="#C9A84C"/><text fill="#FFFFFF" font-family="Calibri,Calibri_MSFontService,sans-serif" font-weight="700" font-size="51" transform="translate(153.6 201)">EUROPEAN REAL ESTATE<tspan fill="#C9A84C" font-size="51" x="0" y="60">MARKET ANALYTICS</tspan></text><rect x="144.5" y="293.5" width="979" height="1" stroke="#1E3A6E" stroke-width="1.33333" stroke-linejoin="round" stroke-miterlimit="10" fill="#1E3A6E"/><text fill="#94A3B8" font-family="Calibri,Calibri_MSFontService,sans-serif" font-weight="400" font-size="15" transform="translate(153.6 318)">Interactive Power BI Dashboard  ·  5,000 Listings  ·  <tspan font-size="15" x="324.433" y="0">10 </tspan>EU <tspan font-size="15" x="365" y="0">Nations</tspan></text><rect x="144.5" y="341.5" width="221" height="86" stroke="#1E3A6E" stroke-width="0.4" stroke-linejoin="round" stroke-miterlimit="10" fill="#162A52" fill-opacity="0.701961"/><text fill="#2DD4BF" font-family="Calibri,Calibri_MSFontService,sans-serif" font-weight="700" font-size="32" transform="translate(163.2 380)">5,000<tspan fill="#94A3B8" font-weight="400" font-size="12" x="0" y="29">Active Listings</tspan></text><rect x="389.5" y="341.5" width="221" height="86" stroke="#1E3A6E" stroke-width="0.4" stroke-linejoin="round" stroke-miterlimit="10" fill="#162A52" fill-opacity="0.701961"/><text fill="#E8C96A" font-family="Calibri,Calibri_MSFontService,sans-serif" font-weight="700" font-size="32" transform="translate(408 380)">10<tspan fill="#94A3B8" font-weight="400" font-size="12" x="0" y="29">EU Countries</tspan></text><rect x="634.5" y="341.5" width="220" height="86" stroke="#1E3A6E" stroke-width="0.4" stroke-linejoin="round" stroke-miterlimit="10" fill="#162A52" fill-opacity="0.701961"/><text fill="#3B82F6" font-family="Calibri,Calibri_MSFontService,sans-serif" font-weight="700" font-size="32" transform="translate(652.8 380)">€621.85K<tspan fill="#94A3B8" font-weight="400" font-size="12" x="0" y="29">Avg Sale Price</tspan></text><rect x="878.5" y="341.5" width="221" height="86" stroke="#1E3A6E" stroke-width="0.4" stroke-linejoin="round" stroke-miterlimit="10" fill="#162A52" fill-opacity="0.701961"/><text fill="#16A34A" font-family="Calibri,Calibri_MSFontService,sans-serif" font-weight="700" font-size="32" transform="translate(897.6 380)">2.8<tspan font-size="32" x="40.8334" y="0">9</tspan><tspan font-size="32" x="57" y="0">%</tspan><tspan fill="#94A3B8" font-weight="400" font-size="12" x="0" y="29">Market Blend Yield</tspan></text><rect x="144.5" y="453.5" width="307" height="31" stroke="#1E3A6E" stroke-width="0.666667" stroke-linejoin="round" stroke-miterlimit="10" fill="#162A52"/><rect x="144.5" y="453.5" width="4" height="31" stroke="#C9A84C" stroke-width="1.33333" stroke-linejoin="round" stroke-miterlimit="10" fill="#C9A84C"/><rect x="470.5" y="453.5" width="308" height="31" stroke="#1E3A6E" stroke-width="0.666667" stroke-linejoin="round" stroke-miterlimit="10" fill="#162A52"/><rect x="470.5" y="453.5" width="4" height="31" stroke="#0D9488" stroke-width="1.33333" stroke-linejoin="round" stroke-miterlimit="10" fill="#0D9488"/><rect x="797.5" y="453.5" width="307" height="31" stroke="#1E3A6E" stroke-width="0.666667" stroke-linejoin="round" stroke-miterlimit="10" fill="#162A52"/><rect x="797.5" y="453.5" width="4" height="31" stroke="#7C3AED" stroke-width="1.33333" stroke-linejoin="round" stroke-miterlimit="10" fill="#7C3AED"/></g></svg>