<svg width="1280" height="720" xmlns="http://www.w3.org/2000/svg" xmlns:xlink="http://www.w3.org/1999/xlink" overflow="hidden"><defs><filter id="fx0" x="-10%" y="-10%" width="120%" height="120%" filterUnits="userSpaceOnUse" primitiveUnits="userSpaceOnUse"><feComponentTransfer color-interpolation-filters="sRGB"><feFuncR type="discrete" tableValues="0 0"/><feFuncG type="discrete" tableValues="0 0"/><feFuncB type="discrete" tableValues="0 0"/><feFuncA type="linear" slope="0.25098" intercept="0"/></feComponentTransfer><feGaussianBlur stdDeviation="3.55556 3.55556"/></filter><filter id="fx1" x="-10%" y="-10%" width="120%" height="120%" filterUnits="userSpaceOnUse" primitiveUnits="userSpaceOnUse"><feComponentTransfer color-interpolation-filters="sRGB"><feFuncR type="discrete" tableValues="0 0"/><feFuncG type="discrete" tableValues="0 0"/><feFuncB type="discrete" tableValues="0 0"/><feFuncA type="linear" slope="0.25098" intercept="0"/></feComponentTransfer><feGaussianBlur stdDeviation="3.55556 3.55556"/></filter><filter id="fx2" x="-10%" y="-10%" width="120%" height="120%" filterUnits="userSpaceOnUse" primitiveUnits="userSpaceOnUse"><feComponentTransfer color-interpolation-filters="sRGB"><feFuncR type="discrete" tableValues="0 0"/><feFuncG type="discrete" tableValues="0 0"/><feFuncB type="discrete" tableValues="0 0"/><feFuncA type="linear" slope="0.25098" intercept="0"/></feComponentTransfer><feGaussianBlur stdDeviation="3.55556 3.55556"/></filter><filter id="fx3" x="-10%" y="-10%" width="120%" height="120%" filterUnits="userSpaceOnUse" primitiveUnits="userSpaceOnUse"><feComponentTransfer color-interpolation-filters="sRGB"><feFuncR type="discrete" tableValues="0 0"/><feFuncG type="discrete" tableValues="0 0"/><feFuncB type="discrete" tableValues="0 0"/><feFuncA type="linear" slope="0.25098" intercept="0"/></feComponentTransfer><feGaussianBlur stdDeviation="3.55556 3.55556"/></filter><filter id="fx4" x="-10%" y="-10%" width="120%" height="120%" filterUnits="userSpaceOnUse" primitiveUnits="userSpaceOnUse"><feComponentTransfer color-interpolation-filters="sRGB"><feFuncR type="discrete" tableValues="0 0"/><feFuncG type="discrete" tableValues="0 0"/><feFuncB type="discrete" tableValues="0 0"/><feFuncA type="linear" slope="0.25098" intercept="0"/></feComponentTransfer><feGaussianBlur stdDeviation="3.55556 3.55556"/></filter><filter id="fx5" x="-10%" y="-10%" width="120%" height="120%" filterUnits="userSpaceOnUse" primitiveUnits="userSpaceOnUse"><feComponentTransfer color-interpolation-filters="sRGB"><feFuncR type="discrete" tableValues="0 0"/><feFuncG type="discrete" tableValues="0 0"/><feFuncB type="discrete" tableValues="0 0"/><feFuncA type="linear" slope="0.25098" intercept="0"/></feComponentTransfer><feGaussianBlur stdDeviation="3.55556 3.55556"/></filter><filter id="fx6" x="-10%" y="-10%" width="120%" height="120%" filterUnits="userSpaceOnUse" primitiveUnits="userSpaceOnUse"><feComponentTransfer color-interpolation-filters="sRGB"><feFuncR type="discrete" tableValues="0 0"/><feFuncG type="discrete" tableValues="0 0"/><feFuncB type="discrete" tableValues="0 0"/><feFuncA type="linear" slope="0.25098" intercept="0"/></feComponentTransfer><feGaussianBlur stdDeviation="3.55556 3.55556"/></filter><filter id="fx7" x="-10%" y="-10%" width="120%" height="120%" filterUnits="userSpaceOnUse" primitiveUnits="userSpaceOnUse"><feComponentTransfer color-interpolation-filters="sRGB"><feFuncR type="discrete" tableValues="0 0"/><feFuncG type="discrete" tableValues="0 0"/><feFuncB type="discrete" tableValues="0 0"/><feFuncA type="linear" slope="0.25098" intercept="0"/></feComponentTransfer><feGaussianBlur stdDeviation="3.55556 3.55556"/></filter><filter id="fx8" x="-10%" y="-10%" width="120%" height="120%" filterUnits="userSpaceOnUse" primitiveUnits="userSpaceOnUse"><feComponentTransfer color-interpolation-filters="sRGB"><feFuncR type="discrete" tableValues="0 0"/><feFuncG type="discrete" tableValues="0 0"/><feFuncB type="discrete" tableValues="0 0"/><feFuncA type="linear" slope="0.25098" intercept="0"/></feComponentTransfer><feGaussianBlur stdDeviation="3.55556 3.55556"/></filter><filter id="fx9" x="-10%" y="-10%" width="120%" height="120%" filterUnits="userSpaceOnUse" primitiveUnits="userSpaceOnUse"><feComponentTransfer color-interpolation-filters="sRGB"><feFuncR type="discrete" tableValues="0 0"/><feFuncG type="discrete" tableValues="0 0"/><feFuncB type="discrete" tableValues="0 0"/><feFuncA type="linear" slope="0.25098" intercept="0"/></feComponentTransfer><feGaussianBlur stdDeviation="3.55556 3.55556"/></filter><filter id="fx10" x="-10%" y="-10%" width="120%" height="120%" filterUnits="userSpaceOnUse" primitiveUnits="userSpaceOnUse"><feComponentTransfer color-interpolation-filters="sRGB"><feFuncR type="discrete" tableValues="0 0"/><feFuncG type="discrete" tableValues="0 0"/><feFuncB type="discrete" tableValues="0 0"/><feFuncA type="linear" slope="0.25098" intercept="0"/></feComponentTransfer><feGaussianBlur stdDeviation="3.55556 3.55556"/></filter><clipPath id="clip11"><rect x="0" y="0" width="1280" height="720"/></clipPath><clipPath id="clip12"><path d="M19.5001 84.5001 19.5001 182.5 216.5 182.5 216.5 84.5001ZM1.90735e-05 1.07288e-05 1280 1.07288e-05 1280 720 1.90735e-05 720Z" fill-rule="evenodd" clip-rule="evenodd"/></clipPath><clipPath id="clip13"><path d="M227.5 84.5001 227.5 182.5 424.5 182.5 424.5 84.5001ZM1.90735e-05 1.07288e-05 1280 1.07288e-05 1280 720 1.90735e-05 720Z" fill-rule="evenodd" clip-rule="evenodd"/></clipPath><clipPath id="clip14"><path d="M435.5 84.5001 435.5 182.5 631.5 182.5 631.5 84.5001ZM1.90735e-05 1.07288e-05 1280 1.07288e-05 1280 720 1.90735e-05 720Z" fill-rule="evenodd" clip-rule="evenodd"/></clipPath><clipPath id="clip15"><path d="M642.5 84.5001 642.5 182.5 839.5 182.5 839.5 84.5001ZM1.90735e-05 1.07288e-05 1280 1.07288e-05 1280 720 1.90735e-05 720Z" fill-rule="evenodd" clip-rule="evenodd"/></clipPath><clipPath id="clip16"><path d="M850.5 84.5001 850.5 182.5 1047.5 182.5 1047.5 84.5001ZM1.90735e-05 1.07288e-05 1280 1.07288e-05 1280 720 1.90735e-05 720Z" fill-rule="evenodd" clip-rule="evenodd"/></clipPath><clipPath id="clip17"><path d="M1058.5 84.5001 1058.5 182.5 1254.5 182.5 1254.5 84.5001ZM1.90735e-05 1.07288e-05 1280 1.07288e-05 1280 720 1.90735e-05 720Z" fill-rule="evenodd" clip-rule="evenodd"/></clipPath><clipPath id="clip18"><path d="M19.5001 201.5 19.5001 420.5 932.5 420.5 932.5 201.5ZM1.90735e-05 1.07288e-05 1280 1.07288e-05 1280 720 1.90735e-05 720Z" fill-rule="evenodd" clip-rule="evenodd"/></clipPath><clipPath id="clip19"><path d="M946.5 202.5 946.5 421.5 1258.5 421.5 1258.5 202.5ZM1.90735e-05 1.07288e-05 1280 1.07288e-05 1280 720 1.90735e-05 720Z" fill-rule="evenodd" clip-rule="evenodd"/></clipPath><clipPath id="clip20"><path d="M19.5001 454.5 19.5001 693.5 401.5 693.5 401.5 454.5ZM1.90735e-05 1.07288e-05 1280 1.07288e-05 1280 720 1.90735e-05 720Z" fill-rule="evenodd" clip-rule="evenodd"/></clipPath><clipPath id="clip21"><path d="M413.5 454.5 413.5 693.5 876.5 693.5 876.5 454.5ZM1.90735e-05 1.07288e-05 1280 1.07288e-05 1280 720 1.90735e-05 720Z" fill-rule="evenodd" clip-rule="evenodd"/></clipPath><clipPath id="clip22"><path d="M888.5 454.5 888.5 693.5 1258.5 693.5 1258.5 454.5ZM1.90735e-05 1.07288e-05 1280 1.07288e-05 1280 720 1.90735e-05 720Z" fill-rule="evenodd" clip-rule="evenodd"/></clipPath></defs><g clip-path="url(#clip11)"><rect x="0" y="0" width="1280" height="720" fill="#0A1628"/><rect x="0.500053" y="0.500053" width="1277" height="48" stroke="#112040" stroke-width="1.33333" stroke-linejoin="round" stroke-miterlimit="10" fill="#112040"/><rect x="0.500053" y="46.5001" width="1277" height="2" stroke="#C9A84C" stroke-width="1.33333" stroke-linejoin="round" stroke-miterlimit="10" fill="#C9A84C"/><rect x="19.5001" y="13.5001" width="63" height="21" stroke="#C9A84C" stroke-width="0.666667" stroke-linejoin="round" stroke-miterlimit="10" fill="#C9A84C" fill-opacity="0.8"/><text fill="#FFFFFF" font-family="Calibri,Calibri_MSFontService,sans-serif" font-weight="700" font-size="13.3333" transform="translate(29.6 27)">PAGE 1</text><text fill="#FFFFFF" font-family="Calibri,Calibri_MSFontService,sans-serif" font-weight="700" font-size="24" transform="translate(91.2 25)">Market Overview &amp; Geographic Analysis</text><text fill="#94A3B8" font-family="Calibri,Calibri_MSFontService,sans-serif" font-weight="400" font-size="13.3333" transform="translate(91.2 39)">European property market</text><text fill="#94A3B8" font-family="Calibri,Calibri_MSFontService,sans-serif" font-weight="400" font-size="13.3333" transform="translate(238.7 39)">—</text><text fill="#94A3B8" font-family="Calibri,Calibri_MSFontService,sans-serif" font-weight="400" font-size="13.3333" transform="translate(253.7 39)">pricing, geographic distribution, listing trends &amp; energy ratings</text><rect x="689.5" y="9.50005" width="182" height="28" stroke="#C9A84C" stroke-width="0.666667" stroke-linejoin="round" stroke-miterlimit="10" fill="#C9A84C"/><rect x="883.5" y="9.50005" width="181" height="28" stroke="#1E3A6E" stroke-width="0.666667" stroke-linejoin="round" stroke-miterlimit="10" fill="#162A52"/><rect x="1076.5" y="9.50005" width="182" height="28" stroke="#1E3A6E" stroke-width="0.666667" stroke-linejoin="round" stroke-miterlimit="10" fill="#162A52"/><rect x="19.5001" y="53.5001" width="1239" height="27" stroke="#1E3A6E" stroke-width="0.4" stroke-linejoin="round" stroke-miterlimit="10" fill="#142548"/><text fill="#C9A84C" font-family="Calibri,Calibri_MSFontService,sans-serif" font-weight="700" font-size="10.6667" transform="translate(38.4 70)">FILTERS:</text><text fill="#E2E8F0" font-family="Calibri,Calibri_MSFontService,sans-serif" font-weight="400" font-size="10.6667" transform="translate(103.771 70)">BEDROOM BUCKET:</text><rect x="193.5" y="55.5001" width="77" height="23" stroke="#1E3A6E" stroke-width="0.666667" stroke-linejoin="round" stroke-miterlimit="10" fill="#162A52"/><rect x="364.5" y="55.5001" width="91" height="23" stroke="#1E3A6E" stroke-width="0.666667" stroke-linejoin="round" stroke-miterlimit="10" fill="#162A52"/><rect x="550.5" y="55.5001" width="97" height="23" stroke="#1E3A6E" stroke-width="0.666667" stroke-linejoin="round" stroke-miterlimit="10" fill="#162A52"/><g clip-path="url(#clip12)"><g filter="url(#fx0)" transform="translate(5 74)"><g><rect x="12.6144" y="12.3857" width="197" height="98" stroke="#1E3A6E" stroke-linejoin="round" stroke-miterlimit="10" fill="#142548"/></g></g></g><rect x="19.5001" y="84.5001" width="197" height="98" stroke="#1E3A6E" stroke-width="0.666667" stroke-linejoin="round" stroke-miterlimit="10" fill="#142548"/><rect x="19.5001" y="84.5001" width="197" height="5" stroke="#C9A84C" stroke-width="1.33333" stroke-linejoin="round" stroke-miterlimit="10" fill="#C9A84C"/><path d="M166.5 112C166.5 103.44 173.44 96.5001 182 96.5001 190.56 96.5001 197.5 103.44 197.5 112 197.5 120.56 190.56 127.5 182 127.5 173.44 127.5 166.5 120.56 166.5 112Z" stroke="#C9A84C" stroke-width="0.666667" stroke-linejoin="round" stroke-miterlimit="10" fill="#C9A84C" fill-rule="evenodd" fill-opacity="0.2"/><text fill="#C9A84C" font-family="Segoe UI Emoji,Segoe UI Emoji_MSFontService,sans-serif" font-weight="400" font-size="13.3333" transform="translate(172.593 115)">🏠</text><text fill="#94A3B8" font-family="Calibri,Calibri_MSFontService,sans-serif" font-weight="700" font-size="13.3333" transform="translate(40.32 109)">TOTAL LISTINGS</text><g clip-path="url(#clip13)"><g filter="url(#fx1)" transform="translate(213 74)"><g><rect x="12.6144" y="12.3857" width="197" height="98" stroke="#1E3A6E" stroke-linejoin="round" stroke-miterlimit="10" fill="#142548"/></g></g></g><rect x="227.5" y="84.5001" width="197" height="98" stroke="#1E3A6E" stroke-width="0.666667" stroke-linejoin="round" stroke-miterlimit="10" fill="#142548"/><rect x="227.5" y="84.5001" width="197" height="4" stroke="#0D9488" stroke-width="1.33333" stroke-linejoin="round" stroke-miterlimit="10" fill="#0D9488"/><path d="M374.5 112C374.5 103.44 381.44 96.5001 390 96.5001 398.56 96.5001 405.5 103.44 405.5 112 405.5 120.56 398.56 127.5 390 127.5 381.44 127.5 374.5 120.56 374.5 112Z" stroke="#0D9488" stroke-width="0.666667" stroke-linejoin="round" stroke-miterlimit="10" fill="#0D9488" fill-rule="evenodd" fill-opacity="0.2"/><text fill="#0D9488" font-family="Segoe UI Emoji,Segoe UI Emoji_MSFontService,sans-serif" font-weight="400" font-size="13.3333" transform="translate(380.273 115)">💶</text><text fill="#94A3B8" font-family="Calibri,Calibri_MSFontService,sans-serif" font-weight="700" font-size="13.3333" transform="translate(248 109)">AVG SALE PRICE</text><g clip-path="url(#clip14)"><g filter="url(#fx2)" transform="translate(421 74)"><g><rect x="12.6144" y="12.3857" width="196" height="98" stroke="#1E3A6E" stroke-linejoin="round" stroke-miterlimit="10" fill="#142548"/></g></g></g><rect x="435.5" y="84.5001" width="196" height="98" stroke="#1E3A6E" stroke-width="0.666667" stroke-linejoin="round" stroke-miterlimit="10" fill="#142548"/><rect x="434.5" y="84.5001" width="197" height="4" stroke="#3B82F6" stroke-width="1.33333" stroke-linejoin="round" stroke-miterlimit="10" fill="#3B82F6"/><path d="M582.5 112C582.5 103.44 589.216 96.5001 597.5 96.5001 605.784 96.5001 612.5 103.44 612.5 112 612.5 120.56 605.784 127.5 597.5 127.5 589.216 127.5 582.5 120.56 582.5 112Z" stroke="#3B82F6" stroke-width="0.666667" stroke-linejoin="round" stroke-miterlimit="10" fill="#3B82F6" fill-rule="evenodd" fill-opacity="0.2"/><text fill="#3B82F6" font-family="Segoe UI Emoji,Segoe UI Emoji_MSFontService,sans-serif" font-weight="400" font-size="13.3333" transform="translate(587.953 115)">📐</text><text fill="#94A3B8" font-family="Calibri,Calibri_MSFontService,sans-serif" font-weight="700" font-size="13.3333" transform="translate(455.68 109)">AVG PRICE / M²</text><g clip-path="url(#clip15)"><g filter="url(#fx3)" transform="translate(628 74)"><g><rect x="12.6144" y="12.3857" width="197" height="98" stroke="#1E3A6E" stroke-linejoin="round" stroke-miterlimit="10" fill="#142548"/></g></g></g><rect x="642.5" y="84.5001" width="197" height="98" stroke="#1E3A6E" stroke-width="0.666667" stroke-linejoin="round" stroke-miterlimit="10" fill="#142548"/><rect x="642.5" y="84.5001" width="197" height="4" stroke="#A855F7" stroke-width="1.33333" stroke-linejoin="round" stroke-miterlimit="10" fill="#A855F7"/><path d="M789.5 112C789.5 103.44 796.44 96.5001 805 96.5001 813.56 96.5001 820.5 103.44 820.5 112 820.5 120.56 813.56 127.5 805 127.5 796.44 127.5 789.5 120.56 789.5 112Z" stroke="#A855F7" stroke-width="0.666667" stroke-linejoin="round" stroke-miterlimit="10" fill="#A855F7" fill-rule="evenodd" fill-opacity="0.2"/><text fill="#A855F7" font-family="Segoe UI Emoji,Segoe UI Emoji_MSFontService,sans-serif" font-weight="400" font-size="13.3333" transform="translate(795.633 115)">📅</text><text fill="#94A3B8" font-family="Calibri,Calibri_MSFontService,sans-serif" font-weight="700" font-size="13.3333" transform="translate(648.96 109)">AVG DAYS ON MARKET</text><g clip-path="url(#clip16)"><g filter="url(#fx4)" transform="translate(836 74)"><g><rect x="12.6144" y="12.3857" width="197" height="98" stroke="#1E3A6E" stroke-linejoin="round" stroke-miterlimit="10" fill="#142548"/></g></g></g><rect x="850.5" y="84.5001" width="197" height="98" stroke="#1E3A6E" stroke-width="0.666667" stroke-linejoin="round" stroke-miterlimit="10" fill="#142548"/><rect x="850.5" y="84.5001" width="197" height="4" stroke="#16A34A" stroke-width="1.33333" stroke-linejoin="round" stroke-miterlimit="10" fill="#16A34A"/><g clip-path="url(#clip17)"><g filter="url(#fx5)" transform="translate(1044 74)"><g><rect x="12.6144" y="12.3857" width="196" height="98" stroke="#1E3A6E" stroke-linejoin="round" stroke-miterlimit="10" fill="#142548"/></g></g></g><rect x="1058.5" y="84.5001" width="196" height="98" stroke="#1E3A6E" stroke-width="0.666667" stroke-linejoin="round" stroke-miterlimit="10" fill="#142548"/><rect x="1058.5" y="84.5001" width="196" height="4" stroke="#EA580C" stroke-width="1.33333" stroke-linejoin="round" stroke-miterlimit="10" fill="#EA580C"/><path d="M1205.5 112C1205.5 103.44 1212.44 96.5001 1221 96.5001 1229.56 96.5001 1236.5 103.44 1236.5 112 1236.5 120.56 1229.56 127.5 1221 127.5 1212.44 127.5 1205.5 120.56 1205.5 112Z" stroke="#DC2626" stroke-width="0.666667" stroke-linejoin="round" stroke-miterlimit="10" fill="#DC2626" fill-rule="evenodd" fill-opacity="0.2"/><text fill="#DC2626" font-family="Segoe UI Emoji,Segoe UI Emoji_MSFontService,sans-serif" font-weight="400" font-size="13.3333" transform="translate(1210.99 115)">🔑</text><text fill="#94A3B8" font-family="Calibri,Calibri_MSFontService,sans-serif" font-weight="700" font-size="12" transform="translate(1070.6 108)">AVG RENT / MONTH</text><g clip-path="url(#clip18)"><g filter="url(#fx6)" transform="translate(5 191)"><g><rect x="12.6144" y="12.3857" width="913" height="219" stroke="#1E3A6E" stroke-linejoin="round" stroke-miterlimit="10" fill="#0F2040"/></g></g></g><rect x="19.5001" y="201.5" width="913" height="219" stroke="#1E3A6E" stroke-width="0.666667" stroke-linejoin="round" stroke-miterlimit="10" fill="#0F2040"/><rect x="19.5001" y="193.5" width="913" height="31" stroke="#162A52" stroke-width="1.33333" stroke-linejoin="round" stroke-miterlimit="10" fill="#162A52"/><rect x="19.5001" y="193.5" width="4" height="31" stroke="#0D9488" stroke-width="1.33333" stroke-linejoin="round" stroke-miterlimit="10" fill="#0D9488"/><g clip-path="url(#clip19)"><g filter="url(#fx7)" transform="translate(932 192)"><g><rect x="12.6144" y="12.3857" width="312" height="219" stroke="#1E3A6E" stroke-linejoin="round" stroke-miterlimit="10" fill="#0F2040"/></g></g></g><rect x="946.5" y="202.5" width="312" height="219" stroke="#1E3A6E" stroke-width="0.666667" stroke-linejoin="round" stroke-miterlimit="10" fill="#0F2040"/><rect x="946.5" y="193.5" width="312" height="31" stroke="#162A52" stroke-width="1.33333" stroke-linejoin="round" stroke-miterlimit="10" fill="#162A52"/><rect x="946.5" y="193.5" width="4" height="31" stroke="#C9A84C" stroke-width="1.33333" stroke-linejoin="round" stroke-miterlimit="10" fill="#C9A84C"/><g clip-path="url(#clip20)"><g filter="url(#fx8)" transform="translate(5 444)"><g><rect x="12.6144" y="12.3857" width="382" height="239" stroke="#1E3A6E" stroke-linejoin="round" stroke-miterlimit="10" fill="#0F2040"/></g></g></g><rect x="19.5001" y="454.5" width="382" height="239" stroke="#1E3A6E" stroke-width="0.666667" stroke-linejoin="round" stroke-miterlimit="10" fill="#0F2040"/><rect x="19.5001" y="433.5" width="382" height="25" stroke="#162A52" stroke-width="1.33333" stroke-linejoin="round" stroke-miterlimit="10" fill="#162A52"/><rect x="19.5001" y="433.5" width="4" height="25" stroke="#C9A84C" stroke-width="1.33333" stroke-linejoin="round" stroke-miterlimit="10" fill="#C9A84C"/><g clip-path="url(#clip21)"><g filter="url(#fx9)" transform="translate(399 444)"><g><rect x="12.6144" y="12.3857" width="463" height="239" stroke="#1E3A6E" stroke-linejoin="round" stroke-miterlimit="10" fill="#0F2040"/></g></g></g><rect x="413.5" y="454.5" width="463" height="239" stroke="#1E3A6E" stroke-width="0.666667" stroke-linejoin="round" stroke-miterlimit="10" fill="#0F2040"/><rect x="413.5" y="433.5" width="463" height="25" stroke="#162A52" stroke-width="1.33333" stroke-linejoin="round" stroke-miterlimit="10" fill="#162A52"/><rect x="413.5" y="433.5" width="4" height="25" stroke="#0D9488" stroke-width="1.33333" stroke-linejoin="round" stroke-miterlimit="10" fill="#0D9488"/><g clip-path="url(#clip22)"><g filter="url(#fx10)" transform="translate(874 444)"><g><rect x="12.6144" y="12.3857" width="370" height="239" stroke="#1E3A6E" stroke-linejoin="round" stroke-miterlimit="10" fill="#0F2040"/></g></g></g><rect x="888.5" y="454.5" width="370" height="239" stroke="#1E3A6E" stroke-width="0.666667" stroke-linejoin="round" stroke-miterlimit="10" fill="#0F2040"/><rect x="888.5" y="433.5" width="370" height="25" stroke="#162A52" stroke-width="1.33333" stroke-linejoin="round" stroke-miterlimit="10" fill="#162A52"/><rect x="888.5" y="433.5" width="4" height="25" stroke="#3B82F6" stroke-width="1.33333" stroke-linejoin="round" stroke-miterlimit="10" fill="#3B82F6"/><rect x="0.500053" y="702.5" width="1277" height="18" stroke="#112040" stroke-width="1.33333" stroke-linejoin="round" stroke-miterlimit="10" fill="#112040"/><text fill="#E2E8F0" font-family="Calibri,Calibri_MSFontService,sans-serif" font-weight="400" font-size="10.6667" transform="translate(279.926 70)">BUILDING DECADE:</text><text fill="#E2E8F0" font-family="Calibri,Calibri_MSFontService,sans-serif" font-weight="400" font-size="10.6667" transform="translate(468.623 70)">DAY OF MARKET :</text><rect x="1152.5" y="55.5001" width="68" height="23" stroke="#1E3A6E" stroke-width="0.666667" stroke-linejoin="round" stroke-miterlimit="10" fill="#162A52"/><rect x="1072.5" y="55.5001" width="69" height="23" stroke="#1E3A6E" stroke-width="0.666667" stroke-linejoin="round" stroke-miterlimit="10" fill="#EA580C"/><rect x="736.5" y="56.5001" width="106" height="23" stroke="#1E3A6E" stroke-width="0.666667" stroke-linejoin="round" stroke-miterlimit="10" fill="#162A52"/><text fill="#E2E8F0" font-family="Calibri,Calibri_MSFontService,sans-serif" font-weight="400" font-size="10.6667" transform="translate(658.884 71)">PROPERTY TYPE:</text><rect x="920.5" y="57.5001" width="130" height="23" stroke="#1E3A6E" stroke-width="0.666667" stroke-linejoin="round" stroke-miterlimit="10" fill="#162A52"/><text fill="#E2E8F0" font-family="Calibri,Calibri_MSFontService,sans-serif" font-weight="400" font-size="10.6667" transform="translate(846.863 72)">DOM VELOCITY:</text><path d="M997.5 112C997.5 103.44 1004.44 96.5001 1013 96.5001 1021.56 96.5001 1028.5 103.44 1028.5 112 1028.5 120.56 1021.56 127.5 1013 127.5 1004.44 127.5 997.5 120.56 997.5 112Z" stroke="#16A34A" stroke-width="0.666667" stroke-linejoin="round" stroke-miterlimit="10" fill="#16A34A" fill-rule="evenodd" fill-opacity="0.2"/><text fill="#16A34A" font-family="Segoe UI Emoji,Segoe UI Emoji_MSFontService,sans-serif" font-weight="400" font-size="13.3333" transform="translate(1003.31 115)">💹</text><text fill="#94A3B8" font-family="Calibri,Calibri_MSFontService,sans-serif" font-weight="700" font-size="13.3333" transform="translate(856.267 109)">PRICE APPRECIATION</text></g></svg>