<svg width="1280" height="720" xmlns="http://www.w3.org/2000/svg" xmlns:xlink="http://www.w3.org/1999/xlink" overflow="hidden"><defs><filter id="fx0" x="-10%" y="-10%" width="120%" height="120%" filterUnits="userSpaceOnUse" primitiveUnits="userSpaceOnUse"><feComponentTransfer color-interpolation-filters="sRGB"><feFuncR type="discrete" tableValues="0 0"/><feFuncG type="discrete" tableValues="0 0"/><feFuncB type="discrete" tableValues="0 0"/><feFuncA type="linear" slope="0.25098" intercept="0"/></feComponentTransfer><feGaussianBlur stdDeviation="3.55556 3.55556"/></filter><filter id="fx1" x="-10%" y="-10%" width="120%" height="120%" filterUnits="userSpaceOnUse" primitiveUnits="userSpaceOnUse"><feComponentTransfer color-interpolation-filters="sRGB"><feFuncR type="discrete" tableValues="0 0"/><feFuncG type="discrete" tableValues="0 0"/><feFuncB type="discrete" tableValues="0 0"/><feFuncA type="linear" slope="0.25098" intercept="0"/></feComponentTransfer><feGaussianBlur stdDeviation="3.55556 3.55556"/></filter><filter id="fx2" x="-10%" y="-10%" width="120%" height="120%" filterUnits="userSpaceOnUse" primitiveUnits="userSpaceOnUse"><feComponentTransfer color-interpolation-filters="sRGB"><feFuncR type="discrete" tableValues="0 0"/><feFuncG type="discrete" tableValues="0 0"/><feFuncB type="discrete" tableValues="0 0"/><feFuncA type="linear" slope="0.25098" intercept="0"/></feComponentTransfer><feGaussianBlur stdDeviation="3.55556 3.55556"/></filter><filter id="fx3" x="-10%" y="-10%" width="120%" height="120%" filterUnits="userSpaceOnUse" primitiveUnits="userSpaceOnUse"><feComponentTransfer color-interpolation-filters="sRGB"><feFuncR type="discrete" tableValues="0 0"/><feFuncG type="discrete" tableValues="0 0"/><feFuncB type="discrete" tableValues="0 0"/><feFuncA type="linear" slope="0.25098" intercept="0"/></feComponentTransfer><feGaussianBlur stdDeviation="3.55556 3.55556"/></filter><filter id="fx4" x="-10%" y="-10%" width="120%" height="120%" filterUnits="userSpaceOnUse" primitiveUnits="userSpaceOnUse"><feComponentTransfer color-interpolation-filters="sRGB"><feFuncR type="discrete" tableValues="0 0"/><feFuncG type="discrete" tableValues="0 0"/><feFuncB type="discrete" tableValues="0 0"/><feFuncA type="linear" slope="0.25098" intercept="0"/></feComponentTransfer><feGaussianBlur stdDeviation="3.55556 3.55556"/></filter><filter id="fx5" x="-10%" y="-10%" width="120%" height="120%" filterUnits="userSpaceOnUse" primitiveUnits="userSpaceOnUse"><feComponentTransfer color-interpolation-filters="sRGB"><feFuncR type="discrete" tableValues="0 0"/><feFuncG type="discrete" tableValues="0 0"/><feFuncB type="discrete" tableValues="0 0"/><feFuncA type="linear" slope="0.25098" intercept="0"/></feComponentTransfer><feGaussianBlur stdDeviation="3.55556 3.55556"/></filter><filter id="fx6" x="-10%" y="-10%" width="120%" height="120%" filterUnits="userSpaceOnUse" primitiveUnits="userSpaceOnUse"><feComponentTransfer color-interpolation-filters="sRGB"><feFuncR type="discrete" tableValues="0 0"/><feFuncG type="discrete" tableValues="0 0"/><feFuncB type="discrete" tableValues="0 0"/><feFuncA type="linear" slope="0.25098" intercept="0"/></feComponentTransfer><feGaussianBlur stdDeviation="3.55556 3.55556"/></filter><filter id="fx7" x="-10%" y="-10%" width="120%" height="120%" filterUnits="userSpaceOnUse" primitiveUnits="userSpaceOnUse"><feComponentTransfer color-interpolation-filters="sRGB"><feFuncR type="discrete" tableValues="0 0"/><feFuncG type="discrete" tableValues="0 0"/><feFuncB type="discrete" tableValues="0 0"/><feFuncA type="linear" slope="0.25098" intercept="0"/></feComponentTransfer><feGaussianBlur stdDeviation="3.55556 3.55556"/></filter><filter id="fx8" x="-10%" y="-10%" width="120%" height="120%" filterUnits="userSpaceOnUse" primitiveUnits="userSpaceOnUse"><feComponentTransfer color-interpolation-filters="sRGB"><feFuncR type="discrete" tableValues="0 0"/><feFuncG type="discrete" tableValues="0 0"/><feFuncB type="discrete" tableValues="0 0"/><feFuncA type="linear" slope="0.25098" intercept="0"/></feComponentTransfer><feGaussianBlur stdDeviation="3.55556 3.55556"/></filter><filter id="fx9" x="-10%" y="-10%" width="120%" height="120%" filterUnits="userSpaceOnUse" primitiveUnits="userSpaceOnUse"><feComponentTransfer color-interpolation-filters="sRGB"><feFuncR type="discrete" tableValues="0 0"/><feFuncG type="discrete" tableValues="0 0"/><feFuncB type="discrete" tableValues="0 0"/><feFuncA type="linear" slope="0.25098" intercept="0"/></feComponentTransfer><feGaussianBlur stdDeviation="3.55556 3.55556"/></filter><filter id="fx10" x="-10%" y="-10%" width="120%" height="120%" filterUnits="userSpaceOnUse" primitiveUnits="userSpaceOnUse"><feComponentTransfer color-interpolation-filters="sRGB"><feFuncR type="discrete" tableValues="0 0"/><feFuncG type="discrete" tableValues="0 0"/><feFuncB type="discrete" tableValues="0 0"/><feFuncA type="linear" slope="0.25098" intercept="0"/></feComponentTransfer><feGaussianBlur stdDeviation="3.55556 3.55556"/></filter><clipPath id="clip11"><rect x="0" y="0" width="1280" height="720"/></clipPath><clipPath id="clip12"><path d="M19.5001 84.5001 19.5001 182.5 216.5 182.5 216.5 84.5001ZM1.90735e-05 1.07288e-05 1280 1.07288e-05 1280 720 1.90735e-05 720Z" fill-rule="evenodd" clip-rule="evenodd"/></clipPath><clipPath id="clip13"><path d="M227.5 84.5001 227.5 182.5 424.5 182.5 424.5 84.5001ZM1.90735e-05 1.07288e-05 1280 1.07288e-05 1280 720 1.90735e-05 720Z" fill-rule="evenodd" clip-rule="evenodd"/></clipPath><clipPath id="clip14"><path d="M435.5 84.5001 435.5 182.5 631.5 182.5 631.5 84.5001ZM1.90735e-05 1.07288e-05 1280 1.07288e-05 1280 720 1.90735e-05 720Z" fill-rule="evenodd" clip-rule="evenodd"/></clipPath><clipPath id="clip15"><path d="M642.5 84.5001 642.5 182.5 839.5 182.5 839.5 84.5001ZM1.90735e-05 1.07288e-05 1280 1.07288e-05 1280 720 1.90735e-05 720Z" fill-rule="evenodd" clip-rule="evenodd"/></clipPath><clipPath id="clip16"><path d="M850.5 84.5001 850.5 182.5 1047.5 182.5 1047.5 84.5001ZM1.90735e-05 1.07288e-05 1280 1.07288e-05 1280 720 1.90735e-05 720Z" fill-rule="evenodd" clip-rule="evenodd"/></clipPath><clipPath id="clip17"><path d="M1058.5 84.5001 1058.5 182.5 1254.5 182.5 1254.5 84.5001ZM1.90735e-05 1.07288e-05 1280 1.07288e-05 1280 720 1.90735e-05 720Z" fill-rule="evenodd" clip-rule="evenodd"/></clipPath><clipPath id="clip18"><path d="M19.5001 193.5 19.5001 414.5 631.5 414.5 631.5 193.5ZM1.90735e-05 1.07288e-05 1280 1.07288e-05 1280 720 1.90735e-05 720Z" fill-rule="evenodd" clip-rule="evenodd"/></clipPath><clipPath id="clip19"><path d="M648.5 198.5 648.5 414.5 1258.5 414.5 1258.5 198.5ZM1.90735e-05 1.07288e-05 1280 1.07288e-05 1280 720 1.90735e-05 720Z" fill-rule="evenodd" clip-rule="evenodd"/></clipPath><clipPath id="clip20"><path d="M19.5001 438.5 19.5001 690.5 352.5 690.5 352.5 438.5ZM1.90735e-05 1.07288e-05 1280 1.07288e-05 1280 720 1.90735e-05 720Z" fill-rule="evenodd" clip-rule="evenodd"/></clipPath><clipPath id="clip21"><path d="M367.5 436.5 367.5 690.5 789.5 690.5 789.5 436.5ZM1.90735e-05 1.07288e-05 1280 1.07288e-05 1280 720 1.90735e-05 720Z" fill-rule="evenodd" clip-rule="evenodd"/></clipPath><clipPath id="clip22"><path d="M803.5 438.5 803.5 690.5 1258.5 690.5 1258.5 438.5ZM1.90735e-05 1.07288e-05 1280 1.07288e-05 1280 720 1.90735e-05 720Z" fill-rule="evenodd" clip-rule="evenodd"/></clipPath></defs><g clip-path="url(#clip11)"><rect x="0" y="0" width="1280" height="720" fill="#0A1628"/><rect x="0.500053" y="0.500053" width="1277" height="48" stroke="#112040" stroke-width="1.33333" stroke-linejoin="round" stroke-miterlimit="10" fill="#112040"/><rect x="19.5001" y="12.5001" width="65" height="21" stroke="#0D9488" stroke-width="0.666667" stroke-linejoin="round" stroke-miterlimit="10" fill="#0D9488" fill-opacity="0.8"/><rect x="0.500053" y="46.5001" width="1277" height="2" stroke="#0D9488" stroke-width="1.33333" stroke-linejoin="round" stroke-miterlimit="10" fill="#0D9488"/><text fill="#FFFFFF" font-family="Calibri,Calibri_MSFontService,sans-serif" font-weight="700" font-size="13.3333" transform="translate(29.35 27)">PAGE 2</text><rect x="689" y="9" width="182" height="28" fill="#162A52"/><rect x="883.5" y="9.50005" width="181" height="28" stroke="#0D9488" stroke-width="0.666667" stroke-linejoin="round" stroke-miterlimit="10" fill="#0D9488"/><rect x="1076.5" y="9.50005" width="182" height="28" stroke="#1E3A6E" stroke-width="0.666667" stroke-linejoin="round" stroke-miterlimit="10" fill="#162A52"/><rect x="19.5001" y="52.5001" width="1239" height="27" stroke="#1E3A6E" stroke-width="0.4" stroke-linejoin="round" stroke-miterlimit="10" fill="#142548"/><text fill="#0D9488" font-family="Calibri,Calibri_MSFontService,sans-serif" font-weight="700" font-size="10.6667" transform="translate(38.4 70)">FILTERS:</text><text fill="#E2E8F0" font-family="Calibri,Calibri_MSFontService,sans-serif" font-weight="400" font-size="10.6667" transform="translate(100.954 70)">PROPERTY TYPE:</text><rect x="177.5" y="53.5001" width="106" height="23" stroke="#1E3A6E" stroke-width="0.666667" stroke-linejoin="round" stroke-miterlimit="10" fill="#162A52"/><rect x="372.5" y="53.5001" width="74" height="23" stroke="#1E3A6E" stroke-width="0.666667" stroke-linejoin="round" stroke-miterlimit="10" fill="#162A52"/><rect x="539.5" y="53.5001" width="104" height="23" stroke="#1E3A6E" stroke-width="0.666667" stroke-linejoin="round" stroke-miterlimit="10" fill="#162A52"/><g clip-path="url(#clip12)"><g filter="url(#fx0)" transform="translate(5 74)"><g><rect x="12.6144" y="12.3857" width="197" height="98" stroke="#1E3A6E" stroke-linejoin="round" stroke-miterlimit="10" fill="#142548"/></g></g></g><rect x="19.5001" y="84.5001" width="197" height="98" stroke="#1E3A6E" stroke-width="0.666667" stroke-linejoin="round" stroke-miterlimit="10" fill="#142548"/><g clip-path="url(#clip13)"><g filter="url(#fx1)" transform="translate(213 74)"><g><rect x="12.6144" y="12.3857" width="197" height="98" stroke="#1E3A6E" stroke-linejoin="round" stroke-miterlimit="10" fill="#142548"/></g></g></g><rect x="227.5" y="84.5001" width="197" height="98" stroke="#1E3A6E" stroke-width="0.666667" stroke-linejoin="round" stroke-miterlimit="10" fill="#142548"/><g clip-path="url(#clip14)"><g filter="url(#fx2)" transform="translate(421 74)"><g><rect x="12.6144" y="12.3857" width="196" height="98" stroke="#1E3A6E" stroke-linejoin="round" stroke-miterlimit="10" fill="#142548"/></g></g></g><rect x="435.5" y="84.5001" width="196" height="98" stroke="#1E3A6E" stroke-width="0.666667" stroke-linejoin="round" stroke-miterlimit="10" fill="#142548"/><g clip-path="url(#clip15)"><g filter="url(#fx3)" transform="translate(628 74)"><g><rect x="12.6144" y="12.3857" width="197" height="98" stroke="#1E3A6E" stroke-linejoin="round" stroke-miterlimit="10" fill="#142548"/></g></g></g><rect x="642.5" y="84.5001" width="197" height="98" stroke="#1E3A6E" stroke-width="0.666667" stroke-linejoin="round" stroke-miterlimit="10" fill="#142548"/><g clip-path="url(#clip16)"><g filter="url(#fx4)" transform="translate(836 74)"><g><rect x="12.6144" y="12.3857" width="197" height="98" stroke="#1E3A6E" stroke-linejoin="round" stroke-miterlimit="10" fill="#142548"/></g></g></g><rect x="850.5" y="84.5001" width="197" height="98" stroke="#1E3A6E" stroke-width="0.666667" stroke-linejoin="round" stroke-miterlimit="10" fill="#142548"/><g clip-path="url(#clip17)"><g filter="url(#fx5)" transform="translate(1044 74)"><g><rect x="12.6144" y="12.3857" width="196" height="98" stroke="#1E3A6E" stroke-linejoin="round" stroke-miterlimit="10" fill="#142548"/></g></g></g><rect x="1058.5" y="84.5001" width="196" height="98" stroke="#1E3A6E" stroke-width="0.666667" stroke-linejoin="round" stroke-miterlimit="10" fill="#142548"/><g clip-path="url(#clip18)"><g filter="url(#fx6)" transform="translate(5 183)"><g><rect x="12.6144" y="12.3857" width="612" height="221" stroke="#1E3A6E" stroke-linejoin="round" stroke-miterlimit="10" fill="#0F2040"/></g></g></g><rect x="19.5001" y="193.5" width="612" height="221" stroke="#1E3A6E" stroke-width="0.666667" stroke-linejoin="round" stroke-miterlimit="10" fill="#0F2040"/><rect x="19.5001" y="191.5" width="613" height="30" stroke="#162A52" stroke-width="1.33333" stroke-linejoin="round" stroke-miterlimit="10" fill="#162A52"/><rect x="19.5001" y="191.5" width="4" height="30" stroke="#0D9488" stroke-width="1.33333" stroke-linejoin="round" stroke-miterlimit="10" fill="#0D9488"/><g clip-path="url(#clip19)"><g filter="url(#fx7)" transform="translate(634 188)"><g><rect x="12.6144" y="12.3857" width="610" height="216" stroke="#1E3A6E" stroke-linejoin="round" stroke-miterlimit="10" fill="#0F2040"/></g></g></g><rect x="648.5" y="198.5" width="610" height="216" stroke="#1E3A6E" stroke-width="0.666667" stroke-linejoin="round" stroke-miterlimit="10" fill="#0F2040"/><rect x="648.5" y="191.5" width="610" height="30" stroke="#162A52" stroke-width="1.33333" stroke-linejoin="round" stroke-miterlimit="10" fill="#162A52"/><rect x="648.5" y="191.5" width="4" height="30" stroke="#C9A84C" stroke-width="1.33333" stroke-linejoin="round" stroke-miterlimit="10" fill="#C9A84C"/><g clip-path="url(#clip20)"><g filter="url(#fx8)" transform="translate(5 428)"><g><rect x="12.6144" y="12.3857" width="333" height="252" stroke="#1E3A6E" stroke-linejoin="round" stroke-miterlimit="10" fill="#0F2040"/></g></g></g><rect x="19.5001" y="438.5" width="333" height="252" stroke="#1E3A6E" stroke-width="0.666667" stroke-linejoin="round" stroke-miterlimit="10" fill="#0F2040"/><rect x="19.5001" y="428.5" width="333" height="31" stroke="#162A52" stroke-width="1.33333" stroke-linejoin="round" stroke-miterlimit="10" fill="#162A52"/><rect x="19.5001" y="428.5" width="4" height="31" stroke="#C9A84C" stroke-width="1.33333" stroke-linejoin="round" stroke-miterlimit="10" fill="#C9A84C"/><g clip-path="url(#clip21)"><g filter="url(#fx9)" transform="translate(353 426)"><g><rect x="12.6144" y="12.3857" width="422" height="254" stroke="#1E3A6E" stroke-linejoin="round" stroke-miterlimit="10" fill="#0F2040"/></g></g></g><rect x="367.5" y="436.5" width="422" height="254" stroke="#1E3A6E" stroke-width="0.666667" stroke-linejoin="round" stroke-miterlimit="10" fill="#0F2040"/><rect x="367.5" y="428.5" width="422" height="31" stroke="#162A52" stroke-width="1.33333" stroke-linejoin="round" stroke-miterlimit="10" fill="#162A52"/><rect x="367.5" y="428.5" width="4" height="31" stroke="#0D9488" stroke-width="1.33333" stroke-linejoin="round" stroke-miterlimit="10" fill="#0D9488"/><g clip-path="url(#clip22)"><g filter="url(#fx10)" transform="translate(789 428)"><g><rect x="12.6144" y="12.3857" width="455" height="252" stroke="#1E3A6E" stroke-linejoin="round" stroke-miterlimit="10" fill="#0F2040"/></g></g></g><rect x="803.5" y="438.5" width="455" height="252" stroke="#1E3A6E" stroke-width="0.666667" stroke-linejoin="round" stroke-miterlimit="10" fill="#0F2040"/><rect x="803.5" y="428.5" width="455" height="31" stroke="#162A52" stroke-width="1.33333" stroke-linejoin="round" stroke-miterlimit="10" fill="#162A52"/><rect x="803.5" y="428.5" width="4" height="31" stroke="#3B82F6" stroke-width="1.33333" stroke-linejoin="round" stroke-miterlimit="10" fill="#3B82F6"/><text fill="#E2E8F0" font-family="Calibri,Calibri_MSFontService,sans-serif" font-weight="400" font-size="10.6667" transform="translate(294.577 70)">ENERGY RATING:</text><text fill="#E2E8F0" font-family="Calibri,Calibri_MSFontService,sans-serif" font-weight="400" font-size="10.6667" transform="translate(454.317 70)">DAY OF MARKET :</text><rect x="1152.5" y="55.5001" width="68" height="23" stroke="#1E3A6E" stroke-width="0.666667" stroke-linejoin="round" stroke-miterlimit="10" fill="#162A52"/><rect x="1072.5" y="55.5001" width="69" height="23" stroke="#EA580C" stroke-width="0.666667" stroke-linejoin="round" stroke-miterlimit="10" fill="#EA580C"/><text fill="#94A3B8" font-family="Calibri,Calibri_MSFontService,sans-serif" font-weight="700" font-size="13.3333" transform="translate(32.64 109)">AVG PROPERTY SIZE</text><text fill="#94A3B8" font-family="Calibri,Calibri_MSFontService,sans-serif" font-weight="700" font-size="13.3333" transform="translate(248 109)">AVG BEDROOMS</text><text fill="#94A3B8" font-family="Calibri,Calibri_MSFontService,sans-serif" font-weight="700" font-size="13.3333" transform="translate(455.68 109)">AVG BATHROOMS</text><text fill="#94A3B8" font-family="Calibri,Calibri_MSFontService,sans-serif" font-weight="700" font-size="13.3333" transform="translate(663.36 109)">% WITH PARKING</text><text fill="#94A3B8" font-family="Calibri,Calibri_MSFontService,sans-serif" font-weight="700" font-size="13.3333" transform="translate(871.04 109)">AMENITY INDEX</text><text fill="#94A3B8" font-family="Calibri,Calibri_MSFontService,sans-serif" font-weight="700" font-size="13.3333" transform="translate(1078.72 109)">AVG FLOOR NO</text><text fill="#FFFFFF" font-family="Calibri,Calibri_MSFontService,sans-serif" font-weight="700" font-size="24" transform="translate(91.2 25)">Property Characteristics &amp; Pricing Drivers</text><text fill="#94A3B8" font-family="Calibri,Calibri_MSFontService,sans-serif" font-weight="400" font-size="13.3333" transform="translate(91.2 39)">Size, bedrooms, building age, floor level, amenity premiums, furnishing &amp; energy rating impact on price</text><rect x="745.5" y="53.5001" width="125" height="23" stroke="#1E3A6E" stroke-width="0.666667" stroke-linejoin="round" stroke-miterlimit="10" fill="#162A52"/><text fill="#E2E8F0" font-family="Calibri,Calibri_MSFontService,sans-serif" font-weight="400" font-size="10.6667" transform="translate(649.922 68)">FURNISHING STATUS:</text><path d="M1205.5 112C1205.5 103.44 1212.44 96.5001 1221 96.5001 1229.56 96.5001 1236.5 103.44 1236.5 112 1236.5 120.56 1229.56 127.5 1221 127.5 1212.44 127.5 1205.5 120.56 1205.5 112Z" stroke="#EA580C" stroke-width="0.666667" stroke-linejoin="round" stroke-miterlimit="10" fill="#EA580C" fill-rule="evenodd" fill-opacity="0.2"/><text fill="#EA580C" font-family="Segoe UI Symbol,Segoe UI Symbol_MSFontService,sans-serif" font-weight="400" font-size="13.3333" transform="translate(1213.49 115)">🏗</text><path d="M997.5 112C997.5 103.44 1004.44 96.5001 1013 96.5001 1021.56 96.5001 1028.5 103.44 1028.5 112 1028.5 120.56 1021.56 127.5 1013 127.5 1004.44 127.5 997.5 120.56 997.5 112Z" stroke="#16A34A" stroke-width="0.666667" stroke-linejoin="round" stroke-miterlimit="10" fill="#16A34A" fill-rule="evenodd" fill-opacity="0.2"/><text fill="#16A34A" font-family="Segoe UI Emoji,Segoe UI Emoji_MSFontService,sans-serif" font-weight="400" font-size="13.3333" transform="translate(1003.31 115)">⭐</text><path d="M789.5 112C789.5 103.44 796.44 96.5001 805 96.5001 813.56 96.5001 820.5 103.44 820.5 112 820.5 120.56 813.56 127.5 805 127.5 796.44 127.5 789.5 120.56 789.5 112Z" stroke="#A855F7" stroke-width="0.666667" stroke-linejoin="round" stroke-miterlimit="10" fill="#A855F7" fill-rule="evenodd" fill-opacity="0.2"/><text fill="#A855F7" font-family="Segoe UI Emoji,Segoe UI Emoji_MSFontService,sans-serif" font-weight="400" font-size="13.3333" transform="translate(795.633 115)">🚗</text><path d="M582.5 112C582.5 103.44 589.216 96.5001 597.5 96.5001 605.784 96.5001 612.5 103.44 612.5 112 612.5 120.56 605.784 127.5 597.5 127.5 589.216 127.5 582.5 120.56 582.5 112Z" stroke="#0D9488" stroke-width="0.666667" stroke-linejoin="round" stroke-miterlimit="10" fill="#0D9488" fill-rule="evenodd" fill-opacity="0.2"/><text fill="#0D9488" font-family="Segoe UI Emoji,Segoe UI Emoji_MSFontService,sans-serif" font-weight="400" font-size="13.3333" transform="translate(587.953 115)">🚿</text><path d="M374.5 112C374.5 103.44 381.44 96.5001 390 96.5001 398.56 96.5001 405.5 103.44 405.5 112 405.5 120.56 398.56 127.5 390 127.5 381.44 127.5 374.5 120.56 374.5 112Z" stroke="#C9A84C" stroke-width="0.666667" stroke-linejoin="round" stroke-miterlimit="10" fill="#C9A84C" fill-rule="evenodd" fill-opacity="0.2"/><text fill="#C9A84C" font-family="Segoe UI Symbol,Segoe UI Symbol_MSFontService,sans-serif" font-weight="400" font-size="13.3333" transform="translate(382.773 115)">🛏</text><path d="M166.5 112C166.5 103.44 173.44 96.5001 182 96.5001 190.56 96.5001 197.5 103.44 197.5 112 197.5 120.56 190.56 127.5 182 127.5 173.44 127.5 166.5 120.56 166.5 112Z" stroke="#3B82F6" stroke-width="0.666667" stroke-linejoin="round" stroke-miterlimit="10" fill="#3B82F6" fill-rule="evenodd" fill-opacity="0.2"/><text fill="#3B82F6" font-family="Segoe UI Emoji,Segoe UI Emoji_MSFontService,sans-serif" font-weight="400" font-size="13.3333" transform="translate(172.593 115)">📏</text><rect x="19.5001" y="84.5001" width="197" height="4" stroke="#3B82F6" stroke-width="1.33333" stroke-linejoin="round" stroke-miterlimit="10" fill="#3B82F6"/><rect x="227.5" y="84.5001" width="197" height="4" stroke="#C9A84C" stroke-width="1.33333" stroke-linejoin="round" stroke-miterlimit="10" fill="#C9A84C"/><rect x="435.5" y="84.5001" width="196" height="4" stroke="#0D9488" stroke-width="1.33333" stroke-linejoin="round" stroke-miterlimit="10" fill="#0D9488"/><rect x="642.5" y="84.5001" width="197" height="4" stroke="#A855F7" stroke-width="1.33333" stroke-linejoin="round" stroke-miterlimit="10" fill="#A855F7"/><rect x="850.5" y="84.5001" width="197" height="4" stroke="#16A34A" stroke-width="1.33333" stroke-linejoin="round" stroke-miterlimit="10" fill="#16A34A"/><rect x="1058.5" y="84.5001" width="196" height="4" stroke="#EA580C" stroke-width="1.33333" stroke-linejoin="round" stroke-miterlimit="10" fill="#EA580C"/><rect x="962.5" y="53.5001" width="88.9999" height="23" stroke="#1E3A6E" stroke-width="0.666667" stroke-linejoin="round" stroke-miterlimit="10" fill="#162A52"/><text fill="#E2E8F0" font-family="Calibri,Calibri_MSFontService,sans-serif" font-weight="400" font-size="10.6667" transform="translate(881.692 68)">DATE HIERARCHY:</text><rect x="0.500053" y="702.5" width="1277" height="18" stroke="#112040" stroke-width="1.33333" stroke-linejoin="round" stroke-miterlimit="10" fill="#112040"/></g></svg>